# xmcd
#
# Track frame offsets: 
#        300
#        15551
#        29979
#        43533
#        69548
#        86938
#        105713
#        123310
#        142134
#        161906
#        173446
#        190262
#
# Disc length: 2690 seconds
#
# Revision: 0
# Processed by: cddbd v1.5.2PL0 Copyright (c) Steve Scherf et al.
# Submitted via: ExactAudioCopy v0.99pb4
#
DISCID=ad0a7e0c
DTITLE=Asylum Street Spankers - My Favorite Record
DYEAR=2000
DGENRE=
TTITLE0=Monkey Rag
TTITLE1=Antifreeze
TTITLE2=Breathin'
TTITLE3=Whatever
TTITLE4=Mountain Town
TTITLE5=Wingless Angels
TTITLE6=Smile
TTITLE7=Wammo's Blues
TTITLE8=Insane Asylum
TTITLE9=Minor Waltz
TTITLE10=No Song Sad Enough
TTITLE11=My Favorite Record
EXTD=
EXTT0=
EXTT1=
EXTT2=
EXTT3=
EXTT4=
EXTT5=
EXTT6=
EXTT7=
EXTT8=
EXTT9=
EXTT10=
EXTT11=
PLAYORDER=
